<svg xmlns="http://www.w3.org/2000/svg" xmlns:xlink="http://www.w3.org/1999/xlink" aria-hidden="true" role="img" width="200" height="200" viewBox="0 0 256 256">
  <!-- Definisi gradien baru -->
  <defs>
    <!-- Gradien pertama: Hijau ke Biru -->
    <linearGradient id="grad1" x1="0%" y1="0%" x2="100%" y2="100%">
      <stop offset="0%" style="stop-color:#00FF00;stop-opacity:1" />
      <stop offset="100%" style="stop-color:#0000FF;stop-opacity:1" />
    </linearGradient>
    
    <!-- Gradien kedua: Merah ke Kuning -->
    <linearGradient id="grad2" x1="0%" y1="0%" x2="100%" y2="100%">
      <stop offset="0%" style="stop-color:#FF0000;stop-opacity:1" />
      <stop offset="100%" style="stop-color:#FFFF00;stop-opacity:1" />
    </linearGradient>
  </defs>

  <!-- Bentuk pertama: Segitiga besar dengan gradien hijau ke biru -->
  <path fill="url(#grad1)" d="M255 37L135 253c-2 4-8 4-11 0L1 37c-2-4 1-10 6-9l120 22a6 6 0 0 0 2 0l118-22c5-1 9 5 6 9Z"></path>

  <!-- Bentuk kedua: Garis-garis miring dengan gradien merah ke kuning -->
  <path fill="url(#grad2)" d="M185 0L96 17a3 3 0 0 0-2 3l-5 92a3 3 0 0 0 3 3l24-5c2-.5 4 1 3 3l-7 36c-.5 2 1 4 4 3l15-4c2-.7 4 1 4 3l-11 56c-.7 3 3 5 5 2l1-2l72-145c1-2-1-5-3-4l-25 5c-2 .4-4-2-3-4l16-58c1-2-1-4-3-4Z"></path>
</svg>
